<svg viewBox="0 0 532 585" xmlns="http://www.w3.org/2000/svg">
<path d="M523.533 428.667C508.601 412.016 492.471 396.339 476.716 380.505C464.992 368.781 452.076 358.104 441.247 345.708C412.351 312.181 384.2 277.839 355.08 243.041L355.085 243.047C355.424 242.125 355.825 241.224 356.278 240.359C390.606 196.026 427.585 153.812 467.013 113.947C472.914 108.124 479.184 102.598 484.71 96.551C497.106 82.8897 497.851 73.7804 485.455 60.8577C475.621 50.1599 464.455 40.7751 452.225 32.9311C428.032 17.9991 400.777 10.5297 373.975 1.42039C369.292 -0.350407 364.022 1.6756 361.73 6.12866C351.126 20.5407 339.927 34.5033 328.651 48.3887C306.25 76.014 283.849 103.419 261.454 130.973V130.967C260.053 132.837 258.756 134.785 257.568 136.796C222.402 98.7902 191.042 60.5609 155.871 25.4676C149.704 28.4884 143.892 32.1968 138.548 36.5145C126.903 48.9104 116.147 61.8999 105.022 74.9679C96.5843 85.046 88.5951 95.4985 80.3818 105.728C72.1684 115.957 64.6271 124.321 57.3084 133.952C49.1677 144.78 49.8396 151.051 59.6209 160.759H59.6262C81.1568 183.327 104.402 204.196 129.142 223.18C142.803 232.961 154.83 244.983 167.746 256.259C132.803 309.644 100.022 362.956 59.8502 410.899C41.0328 433.3 23.7102 456.893 6.01682 480.112C-1.45199 490.19 -1.45199 496.691 7.73561 505.945V505.95C12.5012 510.825 17.7252 515.226 23.3396 519.091C48.5116 535.831 71.9703 555.012 93.3756 576.362C97.3548 579.664 101.688 582.518 106.292 584.872C109.641 577.346 113.506 570.06 117.865 563.069C165.553 496.367 213.417 429.887 261.452 363.629C263.468 360.869 265.634 358.4 268.098 355.416C270.634 357.655 272.801 359.52 274.895 361.541L346.577 434.489C366.489 454.65 386.4 474.76 406.312 494.817C417.885 506.541 422.963 506.541 436.927 498.921C463.151 484.442 489.781 470.53 516.812 457.186C533.015 449.124 536 442.03 523.531 428.665L523.533 428.667Z" />
</svg>
