
<?xml version="1.0" encoding="UTF-8"?>
<svg version="1.1" viewBox="0 0 700 500" xmlns="http://www.w3.org/2000/svg">
 <path d="m349.65 23.348c-1.9922 0.17188-3.5586 1.7852-3.668 3.7852v91.277h-21.953v-58.77c-0.13672-2.1172-1.8906-3.7656-4.0117-3.7656s-3.8789 1.6484-4.0156 3.7656v58.77h-1.8711 0.003906c-3.5586 0-7.0195 1.168-9.8516 3.3203-2.832 2.1523-4.8828 5.1758-5.8359 8.6016l-24.117 86.812h-29.727l-14.25 26.535-97.754-21.746v-0.003906c-8.9023-1.8867-18.141 1.0898-24.273 7.8164-6.1328 6.7266-8.2422 16.203-5.543 24.895 2.6992 8.6953 9.8047 15.305 18.672 17.375l83.664 18.602-17.324 32.211-31.438 23.844 102.13 189.99h183.04l102.08-189.99-31.438-23.844-17.281-32.211 83.621-18.602c8.8516-2.082 15.941-8.6914 18.633-17.379 2.6953-8.6836 0.58594-18.148-5.5352-24.871-6.1211-6.7227-15.348-9.7031-24.246-7.832l-97.707 21.746-14.27-26.535h-29.73l-24.141-86.809c-0.95312-3.4297-3.0039-6.4492-5.8359-8.6016-2.832-2.1562-6.2891-3.3203-9.8477-3.3242h-1.8008v-58.77c-0.011719-2.2188-1.8164-4.0117-4.0352-4.0117s-4.0234 1.793-4.0352 4.0117v58.77h-21.953v-91.277c-0.058594-1.0859-0.55859-2.0977-1.3789-2.8125-0.82031-0.71094-1.8906-1.0625-2.9766-0.97266zm-35.52 103.11h71.699c3.6992 0.003907 6.9453 2.4766 7.9336 6.043l23.547 84.645h-44.453l-22.863-17.348-22.891 17.348h-44.406l23.504-84.645c0.98828-3.5664 4.2305-6.0391 7.9336-6.043zm31.848 86.469v201.39l-125.86 34.012-53.414-99.418zm8.0234 0 179.3 135.98-53.438 99.418-125.86-34.012zm-104.62 12.266h67.113l-113.3 85.945zm134.07 0h67.113l46.188 85.945z"/>
</svg>
