<svg viewBox="0 0 699 597" xmlns="http://www.w3.org/2000/svg">
<path d="M498.24 217.133L698.76 225.706L523.733 351.513L607.009 477.336L448.903 477.33L406.387 596.352L270.12 504.497L100.093 542.008L185.052 412.748L0.211975 331.248L189.039 287.674L81.5026 106.581L300.636 182.128L351.74 0.94104L425.095 188.301L536.283 96.5517L498.236 217.145M533.876 281.932L447.777 256.014L453.309 217.342L410.361 246.498L368.777 177.118L318.615 234.17L192.698 204.701L244.526 308.472L166.781 346.289L236.062 395.929L203.77 466.356L293.114 437.528L382.041 515.158L430.734 433.445L497.927 423.211L459.479 346.096L533.875 281.929"/>
</svg>
